 <svg  version="1.0" xmlns="http://www.w3.org/2000/svg"  width="106.000000pt" height="126.000000pt" viewBox="0 0 106.000000 126.000000"  preserveAspectRatio="xMidYMid meet">  <g transform="translate(0.000000,126.000000) scale(0.100000,-0.100000)" fill="#513c2f" stroke="none"> <path d="M380 1254 c0 -4 16 -27 36 -50 l35 -44 88 0 88 0 37 48 c35 43 36 47 17 50 -13 2 -31 -9 -52 -32 -29 -34 -35 -36 -90 -36 -50 0 -64 4 -84 25 -14 13 -25 29 -25 35 0 5 -11 10 -25 10 -14 0 -25 -3 -25 -6z"/> <path d="M294 1230 c-67 -33 -134 -122 -134 -177 0 -22 3 -23 89 -23 l90 0 44 57 44 58 -41 52 c-22 28 -43 52 -46 52 -3 1 -23 -8 -46 -19z m60 -52 c22 -31 20 -49 -9 -81 -22 -23 -34 -27 -80 -27 -34 0 -55 4 -55 11 0 23 44 81 74 100 40 24 51 24 70 -3z"/> <path d="M694 1197 l-41 -53 44 -57 44 -57 90 0 c78 0 89 2 89 18 -1 30 -36 96 -70 130 -26 26 -98 72 -112 72 -2 0 -21 -24 -44 -53z m128 -47 c64 -67 63 -80 -7 -80 -46 0 -58 4 -80 27 -29 32 -32 59 -8 85 25 28 43 22 95 -32z"/> <path d="M409 1075 l-41 -55 38 -48 c21 -26 39 -49 40 -51 2 -2 23 4 48 12 42 14 50 14 92 0 25 -8 46 -14 48 -12 1 2 19 25 40 52 l38 47 -42 55 -42 55 -89 0 -88 0 -42 -55z m222 -7 c35 -39 36 -49 7 -83 -21 -23 -26 -24 -61 -14 -28 7 -48 7 -74 -2 -33 -10 -37 -9 -59 14 -31 34 -30 48 5 86 26 28 35 31 91 31 56 0 64 -3 91 -32z"/> <path d="M157 1003 c-4 -3 -7 -49 -7 -101 0 -86 2 -94 18 -87 9 4 69 25 132 47 63 22 117 42 119 44 2 2 -15 26 -39 54 l-42 50 -87 0 c-48 0 -91 -3 -94 -7z m177 -48 c29 -22 13 -41 -55 -64 -88 -30 -89 -29 -89 29 l0 50 63 0 c38 -1 69 -6 81 -15z"/> <path d="M700 960 c-23 -28 -41 -52 -39 -54 4 -3 258 -96 262 -96 1 0 2 44 1 97 l-1 98 -90 3 -91 3 -42 -51z m188 -42 c4 -56 3 -56 -85 -26 -69 24 -83 38 -63 64 10 11 29 14 79 12 l66 -3 3 -47z"/> <path d="M474 906 c-17 -8 -40 -26 -52 -40 -25 -32 -46 -91 -39 -110 8 -19 86 -5 126 23 l32 23 32 -25 c19 -14 50 -26 75 -28 41 -4 42 -4 42 26 0 49 -32 98 -80 123 -50 25 -91 27 -136 8z m109 -35 c17 -17 -12 -41 -49 -41 -44 0 -68 36 -33 49 28 10 68 6 82 -8z m-100 -67 c-8 -21 -43 -18 -43 5 0 11 6 21 13 24 17 6 37 -12 30 -29z m153 -3 c-9 -14 -33 -14 -41 -1 -4 6 -1 18 6 26 11 13 14 13 27 0 8 -8 11 -19 8 -25z"/> <path d="M75 780 c3 -5 14 -10 23 -11 11 -1 9 -3 -6 -7 -30 -9 -33 -26 -4 -30 30 -5 28 -22 -3 -22 -14 0 -25 -4 -25 -10 0 -10 14 -14 38 -11 6 1 12 -3 12 -9 0 -5 -9 -10 -21 -10 -11 0 -17 -4 -14 -10 4 -6 55 -10 119 -10 99 0 117 3 140 21 32 25 35 70 6 99 -18 18 -33 20 -146 20 -81 0 -123 -4 -119 -10z m228 -32 c26 -13 21 -47 -9 -58 -28 -11 -107 -13 -141 -4 -17 5 -22 13 -21 33 1 14 3 30 6 34 5 10 142 6 165 -5z"/> <path d="M740 770 c-29 -29 -30 -73 -2 -102 14 -14 39 -17 137 -19 75 -1 120 2 123 9 2 6 -5 12 -15 15 -14 4 -13 5 5 6 32 1 29 31 -4 31 -15 0 -23 4 -19 10 4 6 14 9 22 8 9 -2 18 3 20 10 3 7 -4 12 -16 12 -12 0 -21 5 -21 10 0 6 7 10 15 10 8 0 15 5 15 10 0 6 -47 10 -120 10 -107 0 -122 -2 -140 -20z m205 -45 c0 -37 -15 -45 -82 -45 -72 0 -103 12 -103 39 0 29 10 32 100 29 77 -3 85 -5 85 -23z"/> <path d="M505 745 c-21 -17 -43 -24 -73 -25 l-43 0 16 -30 16 -30 114 0 c106 0 115 1 129 22 23 33 20 38 -21 38 -23 0 -48 9 -69 25 -18 14 -34 25 -36 25 -2 0 -16 -11 -33 -25z m49 -31 c26 -10 18 -22 -14 -20 -30 1 -36 6 -23 19 8 9 17 9 37 1z"/> <path d="M160 629 c0 -3 16 -20 35 -39 31 -30 44 -35 100 -40 36 -3 65 -3 65 0 0 3 -17 22 -37 42 -34 33 -44 37 -101 40 -34 2 -62 1 -62 -3z"/> <path d="M320 633 c0 -5 17 -26 38 -46 36 -35 41 -37 105 -37 l67 0 0 40 0 40 -82 0 c-46 0 -93 3 -105 6 -13 4 -23 2 -23 -3z"/> <path d="M653 632 l-103 -3 0 -39 0 -40 68 0 c66 0 69 1 107 40 21 22 37 41 34 42 -2 2 -50 2 -106 0z"/> <path d="M757 592 c-20 -21 -37 -40 -37 -43 0 -2 29 -2 65 1 58 5 69 9 102 43 l38 37 -66 0 c-62 0 -67 -2 -102 -38z"/> <path d="M43 413 c-29 -3 -43 -9 -43 -19 0 -8 9 -14 20 -14 19 0 20 -7 20 -100 0 -82 3 -100 15 -100 12 0 15 18 15 100 0 93 1 100 20 100 13 0 20 7 20 20 0 11 -6 19 -12 18 -7 -1 -32 -3 -55 -5z"/> <path d="M196 412 c-3 -5 -15 -51 -26 -103 -11 -52 -23 -102 -26 -112 -5 -14 -1 -18 12 -15 10 2 21 14 24 28 4 15 14 26 27 28 16 2 22 -4 26 -27 4 -18 13 -31 22 -31 21 0 22 -11 -30 218 -5 22 -19 29 -29 14z m24 -124 c0 -19 -5 -28 -16 -28 -12 0 -15 6 -10 23 3 12 6 31 6 42 0 32 20 -4 20 -37z"/> <path d="M362 404 c-20 -14 -22 -24 -22 -104 0 -80 2 -90 22 -104 30 -21 44 -20 68 4 17 17 20 33 20 100 0 67 -3 83 -20 100 -24 24 -38 25 -68 4z m53 -104 c0 -70 -1 -75 -22 -78 -22 -3 -23 -1 -23 78 0 79 1 81 23 78 21 -3 22 -8 22 -78z"/> <path d="M640 300 l0 -119 38 6 c50 7 76 38 67 78 -9 37 -9 54 0 81 9 29 -22 61 -67 67 l-38 6 0 -119z m63 75 c20 -19 10 -55 -14 -55 -14 0 -19 7 -19 28 0 25 7 42 16 42 1 0 9 -7 17 -15z m7 -120 c0 -28 -4 -35 -20 -35 -16 0 -20 7 -20 35 0 28 4 35 20 35 16 0 20 -7 20 -35z"/> <path d="M830 300 c0 -100 3 -120 15 -120 13 0 15 20 15 120 0 100 -2 120 -15 120 -12 0 -15 -20 -15 -120z"/> <path d="M940 300 c0 -110 2 -121 18 -118 15 3 17 13 14 73 -4 81 5 79 34 -8 32 -97 46 -82 47 53 0 93 -2 115 -14 115 -11 0 -13 -15 -11 -70 2 -38 1 -67 -4 -63 -4 4 -16 36 -28 70 -14 42 -27 64 -38 66 -16 3 -18 -8 -18 -118z"/> <path d="M230 45 c0 -45 1 -46 28 -43 24 3 27 7 27 43 0 36 -3 40 -27 43 -27 3 -28 2 -28 -43z"/> <path d="M310 45 c0 -44 1 -45 31 -45 17 0 28 4 24 10 -3 5 -12 7 -20 3 -9 -3 -15 1 -15 10 0 9 8 18 18 20 16 4 16 5 0 6 -25 1 -23 21 2 21 11 0 20 5 20 10 0 6 -13 10 -30 10 -29 0 -30 -2 -30 -45z"/> <path d="M386 68 c13 -45 24 -68 29 -68 5 0 16 23 29 68 4 12 3 22 -2 22 -5 0 -13 -15 -19 -32 l-10 -33 -7 33 c-4 17 -12 32 -17 32 -6 0 -7 -10 -3 -22z"/> <path d="M470 45 c0 -41 2 -45 25 -45 14 0 25 4 25 9 0 5 -9 7 -20 4 -14 -4 -20 0 -20 10 0 9 10 18 23 20 l22 4 -22 2 c-28 1 -31 21 -3 21 11 0 20 5 20 10 0 6 -11 10 -25 10 -23 0 -25 -4 -25 -45z"/> <path d="M540 45 c0 -25 5 -45 10 -45 6 0 10 10 10 23 l0 22 21 -25 c19 -23 20 -24 16 -4 -2 12 -1 28 4 35 11 18 -9 39 -37 39 -22 0 -24 -4 -24 -45z"/> <path d="M641 68 c-5 -13 -12 -33 -16 -46 -6 -21 -5 -22 13 -11 17 10 24 10 38 -2 15 -13 16 -12 9 11 -14 47 -24 70 -30 70 -3 0 -9 -10 -14 -22z"/> <path d="M712 78 c-30 -30 2 -93 36 -71 22 13 28 43 9 43 -8 0 -14 -6 -13 -12 0 -7 -3 -15 -9 -18 -5 -3 -11 8 -13 24 -3 27 -2 28 24 22 24 -6 26 -5 15 8 -16 19 -33 20 -49 4z"/> <path d="M790 45 c0 -44 1 -45 31 -45 17 0 28 4 24 10 -3 5 -12 7 -19 4 -8 -3 -17 -1 -21 5 -3 6 4 15 16 19 l23 9 -25 8 -24 8 28 4 c36 6 35 23 -3 23 -29 0 -30 -2 -30 -45z"/> </g> </svg> 