<!DOCTYPE svg PUBLIC "-//W3C//DTD SVG 1.1//EN" "http://www.w3.org/Graphics/SVG/1.1/DTD/svg11.dtd">
<!-- Uploaded to: SVG Repo, www.svgrepo.com, Transformed by: SVG Repo Mixer Tools -->
<svg version="1.1" id="Layer_1" xmlns="http://www.w3.org/2000/svg" xmlns:xlink="http://www.w3.org/1999/xlink" viewBox="0 0 512 512" xml:space="preserve" width="800px" height="800px" fill="#000000">
<g id="SVGRepo_bgCarrier" stroke-width="0"/>
<g id="SVGRepo_tracerCarrier" stroke-linecap="round" stroke-linejoin="round"/>
<g id="SVGRepo_iconCarrier"> <rect x="106.962" y="7.604" style="fill:#ECE3E0;" width="298.075" height="496.792"/> <rect x="150.842" y="353.645" style="fill:#F2F2F0;" width="204.009" height="117.882"/> <rect x="150.842" y="52.589" style="fill:#D3EFFD;" width="204.009" height="249.907"/> <g> <rect x="177.476" y="82.914" style="fill:#DE794E;" width="35.331" height="43.081"/> <rect x="234.567" y="82.914" style="fill:#DE794E;" width="35.331" height="43.081"/> <rect x="291.668" y="82.914" style="fill:#DE794E;" width="35.331" height="43.081"/> <rect x="177.476" y="154.34" style="fill:#DE794E;" width="35.331" height="43.081"/> <rect x="234.567" y="154.34" style="fill:#DE794E;" width="35.331" height="43.081"/> <rect x="291.668" y="154.34" style="fill:#DE794E;" width="35.331" height="43.081"/> <rect x="177.476" y="225.767" style="fill:#DE794E;" width="35.331" height="43.081"/> <rect x="234.567" y="225.767" style="fill:#DE794E;" width="35.331" height="43.081"/> <rect x="291.668" y="225.767" style="fill:#DE794E;" width="35.331" height="43.081"/> </g> <rect x="354.841" y="142.883" style="fill:#F2F2F0;" width="50.196" height="63.478"/> <polygon style="fill:#DE794E;" points="324.43,410.555 181.256,410.555 150.84,353.649 354.845,353.649 "/> <path style="fill:#DE794E;" d="M379.942,191.191c-4.2,0-7.604-3.404-7.604-7.604v-17.935c0-4.2,3.404-7.604,7.604-7.604 s7.604,3.404,7.604,7.604v17.935C387.546,187.787,384.141,191.191,379.942,191.191z"/> <g style="opacity:0.5;"> <polygon style="fill:#FFFFFF;" points="229.578,52.589 205.442,302.499 280,302.499 306.557,52.589 "/> </g> <path d="M405.038,0H106.962c-4.199,0-7.604,3.404-7.604,7.604v496.792c0,4.2,3.404,7.604,7.604,7.604h298.075 c4.2,0,7.604-3.404,7.604-7.604V203.374v-57.508V7.604C412.642,3.404,409.237,0,405.038,0z M114.566,496.792V15.208h282.867v123.053 h-34.984V52.589c0-4.2-3.404-7.604-7.604-7.604H150.84c-4.2,0-7.604,3.404-7.604,7.604v249.91c0,4.2,3.404,7.604,7.604,7.604 h204.005c4.2,0,7.604-3.404,7.604-7.604v-91.522h34.984v285.816H114.566z M397.434,195.77h-34.984v-42.3h34.984V195.77z M347.241,145.865v57.508v91.522H158.444V60.193h188.797L347.241,145.865L347.241,145.865z"/> <path d="M177.472,133.6h35.331c4.2,0,7.604-3.404,7.604-7.604V82.915c0-4.2-3.404-7.604-7.604-7.604h-35.331 c-4.2,0-7.604,3.404-7.604,7.604v43.081C169.868,130.196,173.273,133.6,177.472,133.6z M185.076,90.519h20.123v27.873h-20.123 L185.076,90.519L185.076,90.519z"/> <path d="M234.572,133.6h35.331c4.2,0,7.604-3.404,7.604-7.604V82.915c0-4.2-3.404-7.604-7.604-7.604h-35.331 c-4.2,0-7.604,3.404-7.604,7.604v43.081C226.968,130.196,230.372,133.6,234.572,133.6z M242.176,90.519h20.123v27.873h-20.123 L242.176,90.519L242.176,90.519z"/> <path d="M291.67,133.6h35.331c4.2,0,7.604-3.404,7.604-7.604V82.915c0-4.2-3.404-7.604-7.604-7.604H291.67 c-4.2,0-7.604,3.404-7.604,7.604v43.081C284.066,130.196,287.47,133.6,291.67,133.6z M299.274,90.519h20.123v27.873h-20.123V90.519z "/> <path d="M177.472,205.028h35.331c4.2,0,7.604-3.404,7.604-7.604v-43.081c0-4.2-3.404-7.604-7.604-7.604h-35.331 c-4.2,0-7.604,3.404-7.604,7.604v43.081C169.868,201.624,173.273,205.028,177.472,205.028z M185.076,161.946h20.123v27.873h-20.123 L185.076,161.946L185.076,161.946z"/> <path d="M234.572,205.028h35.331c4.2,0,7.604-3.404,7.604-7.604v-43.081c0-4.2-3.404-7.604-7.604-7.604h-35.331 c-4.2,0-7.604,3.404-7.604,7.604v43.081C226.968,201.624,230.372,205.028,234.572,205.028z M242.176,161.946h20.123v27.873h-20.123 L242.176,161.946L242.176,161.946z"/> <path d="M291.67,205.028h35.331c4.2,0,7.604-3.404,7.604-7.604v-43.081c0-4.2-3.404-7.604-7.604-7.604H291.67 c-4.2,0-7.604,3.404-7.604,7.604v43.081C284.066,201.624,287.47,205.028,291.67,205.028z M299.274,161.946h20.123v27.873h-20.123 V161.946z"/> <path d="M177.472,276.456h35.331c4.2,0,7.604-3.404,7.604-7.604v-43.08c0-4.2-3.404-7.604-7.604-7.604h-35.331 c-4.2,0-7.604,3.404-7.604,7.604v43.08C169.868,273.051,173.273,276.456,177.472,276.456z M185.076,233.376h20.123v27.872h-20.123 L185.076,233.376L185.076,233.376z"/> <path d="M234.572,276.456h35.331c4.2,0,7.604-3.404,7.604-7.604v-43.08c0-4.2-3.404-7.604-7.604-7.604h-35.331 c-4.2,0-7.604,3.404-7.604,7.604v43.08C226.968,273.051,230.372,276.456,234.572,276.456z M242.176,233.376h20.123v27.872h-20.123 L242.176,233.376L242.176,233.376z"/> <path d="M291.67,276.456h35.331c4.2,0,7.604-3.404,7.604-7.604v-43.08c0-4.2-3.404-7.604-7.604-7.604H291.67 c-4.2,0-7.604,3.404-7.604,7.604v43.08C284.066,273.051,287.47,276.456,291.67,276.456z M299.274,233.376h20.123v27.872h-20.123 V233.376z"/> <path d="M362.43,353.281c-0.01-0.22-0.028-0.437-0.058-0.651c-0.011-0.086-0.024-0.172-0.04-0.259 c-0.041-0.239-0.092-0.474-0.155-0.706c-0.014-0.054-0.026-0.108-0.042-0.162c-0.088-0.298-0.191-0.589-0.313-0.871 c-0.005-0.013-0.012-0.025-0.018-0.038c-0.117-0.265-0.249-0.519-0.394-0.766c-0.016-0.028-0.027-0.059-0.045-0.087 c-0.02-0.033-0.046-0.063-0.067-0.096c-0.132-0.212-0.274-0.418-0.426-0.615c-0.036-0.048-0.07-0.096-0.107-0.143 c-0.186-0.231-0.384-0.451-0.595-0.659c-0.042-0.042-0.087-0.078-0.13-0.118c-0.174-0.163-0.356-0.318-0.544-0.465 c-0.066-0.051-0.132-0.1-0.2-0.149c-0.196-0.142-0.398-0.274-0.607-0.397c-0.046-0.026-0.089-0.057-0.136-0.082 c-0.264-0.148-0.537-0.281-0.819-0.397c-0.025-0.01-0.052-0.018-0.077-0.028c-0.248-0.099-0.504-0.184-0.764-0.257 c-0.074-0.021-0.149-0.04-0.225-0.058c-0.222-0.055-0.448-0.099-0.678-0.134c-0.079-0.012-0.157-0.026-0.237-0.036 c-0.299-0.035-0.602-0.06-0.91-0.06H150.84c-0.308,0-0.611,0.023-0.91,0.06c-0.08,0.009-0.158,0.024-0.237,0.036 c-0.229,0.034-0.455,0.079-0.678,0.134c-0.075,0.018-0.15,0.036-0.225,0.058c-0.261,0.073-0.515,0.157-0.763,0.257 c-0.025,0.01-0.053,0.018-0.078,0.028c-0.282,0.117-0.556,0.249-0.819,0.397c-0.047,0.026-0.09,0.056-0.136,0.082 c-0.209,0.123-0.412,0.256-0.607,0.397c-0.067,0.049-0.134,0.098-0.2,0.149c-0.19,0.147-0.37,0.302-0.544,0.465 c-0.043,0.041-0.088,0.077-0.13,0.118c-0.211,0.208-0.41,0.428-0.595,0.659c-0.038,0.047-0.071,0.095-0.107,0.143 c-0.152,0.198-0.293,0.402-0.426,0.615c-0.02,0.033-0.047,0.063-0.067,0.096c-0.017,0.028-0.028,0.059-0.045,0.087 c-0.144,0.247-0.277,0.501-0.393,0.765c-0.006,0.013-0.013,0.026-0.019,0.04c-0.122,0.282-0.225,0.573-0.312,0.871 c-0.016,0.054-0.027,0.108-0.042,0.162c-0.063,0.231-0.115,0.466-0.155,0.706c-0.015,0.086-0.027,0.172-0.04,0.259 c-0.028,0.215-0.047,0.432-0.058,0.651c-0.004,0.086-0.012,0.172-0.013,0.26c0,0.036-0.005,0.072-0.005,0.109v117.883 c0,4.2,3.404,7.604,7.604,7.604h204.005c4.2,0,7.604-3.404,7.604-7.604V353.649c0-0.036-0.005-0.072-0.005-0.109 C362.442,353.453,362.434,353.367,362.43,353.281z M342.159,361.253l-22.287,41.697H185.813l-22.287-41.697L342.159,361.253 L342.159,361.253z M158.444,463.928v-79.922l16.106,30.133c1.323,2.474,3.9,4.02,6.706,4.02H324.43c2.806,0,5.384-1.545,6.706-4.02 l16.106-30.133v79.922H158.444z"/> <path d="M379.942,191.191c4.2,0,7.604-3.404,7.604-7.604v-17.935c0-4.2-3.404-7.604-7.604-7.604s-7.604,3.404-7.604,7.604v17.935 C372.338,187.787,375.741,191.191,379.942,191.191z"/> </g>
</svg>